<?xml version="1.0" encoding="UTF-8"?>
<svg id="_レイヤー_1" data-name="レイヤー 1" xmlns="http://www.w3.org/2000/svg" viewBox="0 0 26.59 30.32">
  <defs>
    <style>
      .cls-1 {
        fill: #7d5542;
      }
    </style>
  </defs>
  <ellipse class="cls-1" cx="5.15" cy="19.98" rx="5.18" ry="3.73" transform="translate(-3.17 1.1) rotate(-9.33)"/>
  <ellipse class="cls-1" cx="11.91" cy="26.56" rx="4.82" ry="3.47" transform="translate(-10.33 7.78) rotate(-25.67)"/>
  <ellipse class="cls-1" cx="5.35" cy="10.32" rx="3.79" ry="5.26" transform="translate(-5.84 13.47) rotate(-78.32)"/>
  <ellipse class="cls-1" cx="12.02" cy="3.66" rx="3.37" ry="4.69" transform="translate(3.51 12.9) rotate(-64.27)"/>
  <path class="cls-1" d="M14.5,20.53c-5.06-3.15-3.15-7.47-3.15-7.47,1.55-2.75,2.73-2.88,2.73-2.88,1.68-.55,2.36-1.76,2.36-1.76,2.39-3.67,6.16-2.94,6.16-2.94,4.06,1.02,3.99,4.33,3.99,4.33-.03,2.31-.97,3.83-.97,3.83-.81,1.49-.16,2.91-.16,2.91,2.02,3.3.66,5.56.66,5.56-1.36,2.6-3.91,2.73-3.91,2.73-3.2-.08-4.46-1.52-4.46-1.52-1-1.63-3.25-2.78-3.25-2.78Z"/>
</svg>