<?xml version="1.0" encoding="UTF-8"?>
<svg id="_レイヤー_1" data-name="レイヤー 1" xmlns="http://www.w3.org/2000/svg" viewBox="0 0 31.94 28.01">
  <defs>
    <style>
      .cls-1 {
        fill: #7d5542;
      }
    </style>
  </defs>
  <ellipse class="cls-1" cx="10.89" cy="5.42" rx="3.93" ry="5.46" transform="translate(-.74 1.84) rotate(-9.33)"/>
  <ellipse class="cls-1" cx="3.96" cy="12.54" rx="3.65" ry="5.08" transform="translate(-5.04 2.95) rotate(-25.67)"/>
  <ellipse class="cls-1" cx="21.07" cy="5.64" rx="5.54" ry="3.99" transform="translate(11.28 25.13) rotate(-78.32)"/>
  <ellipse class="cls-1" cx="28.08" cy="12.66" rx="4.94" ry="3.55" transform="translate(4.49 32.46) rotate(-64.27)"/>
  <path class="cls-1" d="M10.31,15.28c3.31-5.33,7.87-3.31,7.87-3.31,2.9,1.63,3.04,2.87,3.04,2.87.58,1.77,1.85,2.49,1.85,2.49,3.87,2.51,3.09,6.49,3.09,6.49-1.08,4.28-4.56,4.2-4.56,4.2-2.43-.03-4.03-1.02-4.03-1.02-1.57-.86-3.07-.17-3.07-.17-3.48,2.13-5.86.69-5.86.69-2.73-1.44-2.87-4.12-2.87-4.12.08-3.37,1.6-4.7,1.6-4.7,1.71-1.05,2.93-3.43,2.93-3.43Z"/>
</svg>