<?xml version="1.0" encoding="UTF-8"?>
<svg id="_レイヤー_1" data-name=" レイヤー 1" xmlns="http://www.w3.org/2000/svg" viewBox="0 0 499 168">
  <defs>
    <style>
      .cls-1 {
        font-family: KozGoPr6N-Bold-83pv-RKSJ-H, 'Kozuka Gothic Pr6N';
        font-weight: 700;
      }

      .cls-1, .cls-2, .cls-3, .cls-4, .cls-5, .cls-6, .cls-7, .cls-8, .cls-9, .cls-10, .cls-11, .cls-12, .cls-13 {
        isolation: isolate;
      }

      .cls-1, .cls-3, .cls-5, .cls-6, .cls-7, .cls-8, .cls-9, .cls-10, .cls-11, .cls-12, .cls-14, .cls-13 {
        fill: #7d5542;
      }

      .cls-1, .cls-3, .cls-5, .cls-6, .cls-7, .cls-8, .cls-9, .cls-10, .cls-11, .cls-12, .cls-13 {
        font-size: 22px;
      }

      .cls-15, .cls-4 {
        fill: #fffcfc;
      }

      .cls-3, .cls-4, .cls-5, .cls-6, .cls-7, .cls-8, .cls-9, .cls-10, .cls-11, .cls-12, .cls-13 {
        font-family: SourceHanSerif-Medium-83pv-RKSJ-H, 'Source Han Serif';
        font-weight: 500;
      }

      .cls-4 {
        font-size: 16px;
      }

      .cls-5 {
        letter-spacing: -.11em;
      }

      .cls-6 {
        letter-spacing: -.25em;
      }

      .cls-7 {
        letter-spacing: -.25em;
      }

      .cls-8 {
        letter-spacing: -.22em;
      }

      .cls-9 {
        letter-spacing: -.08em;
      }

      .cls-10 {
        letter-spacing: -.18em;
      }

      .cls-11 {
        letter-spacing: -.16em;
      }

      .cls-12 {
        letter-spacing: -.55em;
      }

      .cls-16 {
        letter-spacing: -.11em;
      }

      .cls-17 {
        letter-spacing: -.09em;
      }

      .cls-18 {
        letter-spacing: -.04em;
      }

      .cls-13 {
        letter-spacing: 0em;
      }
    </style>
  </defs>
  <rect class="cls-14" width="499" height="168"/>
  <rect class="cls-15" x="10.24" y="9.95" width="478.52" height="148.1" rx="13.18" ry="13.18"/>
  <g>
    <path class="cls-14" d="M108.17,114.48l-10.56-10.56,4.16-4.16,6.32,6.32,12.64-12.64,4.16,4.24-16.73,16.8h0ZM80.97,98.12l-4.16-4.16,4.76-4.76-4.76-4.76,4.16-4.16,4.76,4.76,4.76-4.76,4.16,4.16-4.76,4.76,4.76,4.76-4.16,4.16-4.76-4.76-4.76,4.76ZM73.83,112.99c-1.64,0-3.04-.58-4.2-1.75-1.16-1.16-1.75-2.56-1.75-4.2v-41.63c0-1.64.58-3.04,1.75-4.2,1.16-1.16,2.56-1.75,4.2-1.75h2.97v-5.95h5.95v5.95h23.79v-5.95h5.95v5.95h2.97c1.64,0,3.04.58,4.2,1.75s1.75,2.56,1.75,4.2v18.88l-5.95,6.02v-13.01h-41.63v29.73h18.58l5.87,5.95h-24.46,0ZM73.83,71.36h41.63v-5.95h-41.63v5.95ZM73.83,71.36v-5.95,5.95Z"/>
    <g>
      <g>
        <path class="cls-14" d="M258.57,89.53h63.23c8.46,0,15.31,6.85,15.31,15.31h0c0,8.46-6.85,15.31-15.31,15.31h-63.23c-8.46,0-15.31-6.85-15.31-15.31h0c0-8.46,6.85-15.31,15.31-15.31Z"/>
        <g class="cls-2">
          <text class="cls-4" transform="translate(258.67 110.13)"><tspan x="0" y="0">予</tspan><tspan class="cls-18" x="16" y="0">約</tspan><tspan class="cls-16" x="31.38" y="0">す</tspan><tspan class="cls-17" x="45.66" y="0">る</tspan></text>
        </g>
      </g>
      <g class="cls-2">
        <text class="cls-1" transform="translate(149.25 67.21)"><tspan x="0" y="0" xml:space="preserve">    </tspan></text>
        <text class="cls-9" transform="translate(167.59 67.69)"><tspan x="0" y="0">ご</tspan></text>
        <text class="cls-3" transform="translate(189.82 67.69)"><tspan x="0" y="0">予</tspan></text>
        <text class="cls-6" transform="translate(211.82 67.69)"><tspan x="0" y="0">約</tspan></text>
        <text class="cls-12" transform="translate(222.82 67.69)"><tspan x="0" y="0">・</tspan></text>
        <text class="cls-9" transform="translate(242.66 67.69)"><tspan x="0" y="0">ご</tspan></text>
        <text class="cls-3" transform="translate(264.88 67.69)"><tspan x="0" y="0">相</tspan></text>
        <text class="cls-13" transform="translate(286.88 67.69)"><tspan x="0" y="0">談</tspan></text>
        <text class="cls-5" transform="translate(309.5 67.69)"><tspan x="0" y="0">は</tspan></text>
        <text class="cls-8" transform="translate(327.67 67.69)"><tspan x="0" y="0">こ</tspan></text>
        <text class="cls-7" transform="translate(347.67 67.69)"><tspan x="0" y="0">ち</tspan></text>
        <text class="cls-10" transform="translate(364.61 67.69)"><tspan x="0" y="0">ら</tspan></text>
        <text class="cls-11" transform="translate(386.76 67.69)"><tspan x="0" y="0">か</tspan></text>
        <text class="cls-10" transform="translate(403.88 67.69)"><tspan x="0" y="0">ら</tspan></text>
      </g>
    </g>
  </g>
  <g>
    <path class="cls-14" d="M189.81,112.39l-.3.42-.51,1.15-.25.61c-.12.3-.27.74-.47.97l-.54.65c-.12.14-.42.33-.47.48-.08.25-.16.44-.33.65-.15.18-.08.63-.15.84l-.2.65c-.11.36-.45.79-.7,1.1l-.53.65c-.17.21-.35.35-.44.62l-.74.02c-.68.02-1.22.35-1.55.96l-.68.24c-.2.26-.44.37-.74.37-.31.25-.73.47-1.1.4-.43-.08-1.19.23-2.04.04-.36-.08-.76-.38-1.03-.51l-.07.57-.02.6c0,.18-.06.35-.1.54l-.11.57c-.05.27-.04.39-.15.61l-.84,1.56-.25.4-.34.45c-.19.29-.42.54-.73.76-.07.3-.21.6-.56.61l-.44.51c-.09.1-.33.19-.44.22-.14.25-.38.47-.65.63l-.7.4c-.18.43-.53.57-.95.71-.32.24-.94.44-1.44.46-.23.31-.54.45-.95.32l-.35-.11c-.16.26-.76.49-1.12.47l-1.15-.06c-.23-.16-.45-.24-.68,0l-.33-.23c-.29.12-.57.12-.87.03l-.48-.13c-.02.11-.21.22-.38.2l-.3.29c-.73-.16-1.09.36-1.57.41-.17.02-.38.02-.46.09-.08.06-.13.26-.15.38l-.67.28c.02-.12,0-.46.06-.58l.42-.9c-.03-.33.07-.57.27-.82-.04-.29.08-.56.29-.63-.18-.13-.22-.32-.28-.53-.08-.29-.16-.53-.16-.81-.3-.34-.43-.84-.37-1.31-.29-.28-.26-.67-.04-.98-.18-.34-.21-.74,0-1.08-.03-.31.1-.56.32-.79-.16-.37-.07-.73.22-1.01l.32-.74c.31-.71.76-1.6,1.39-1.88.07-.34.18-.63.48-.91l.84-.78c.19-.18.39-.3.63-.44.29-.16.53-.51.91-.76l1.14-.78c.11-.08.36-.18.48-.21l.72-.21c.24-.07.55-.1.76-.1.36-.15.64-.21,1.02-.28l.94-.16.67-.05,2.26.61c.35.1.67.26.97.45l.46.29.69.54c.09.07.15.15.22.3l-.35-.19-.66-.38-.56-.25-.85-.37-.59-.23c-.55-.21-1.07-.33-1.64-.32h-.54l-.6.09c-.24.03-.5.11-.76.2-.35-.05-.69,0-.97.23-.34-.02-.65.1-.95.27-.64.17-1.29.57-1.76,1.12-.15.03-.39.11-.49.21l-.56.52-.8.8-.23.25c-.05.17-.18.35-.33.44-.37.08-.52.36-.5.69-.31.24-.36.63-.53.92l-.64,1.02c-.1.16-.1.35-.09.59l-.42.68-.05.71c0,.21,0,.52-.15.71-.37.45.05.64,0,1.2.33.54.76,1.47.75,1.89l-.03.75-.02.82c0,.32.16.52-.2.83l.63-.05c.67-.06.64-.35,1.26-.34s.97-.43,1.97-.27l.67.11h2.08l.61-.04c.23-.38.58-.4.98-.37l.8-.31.54-.28c.24-.13.43-.39.74-.47.23-.06.43-.27.65-.41l.94-.63.86-.7c.04-.28.27-.48.56-.59.15-.32.34-.6.55-.86l.25-.42.56-.8c.23-.33.43-.74.59-1.12l.18-.45c.18-.44.16-.97.24-1.44l.07-.38.09-.94-.2-.18s.04-.22.11-.22c.23.02.2.25.87.55.17.08.36.19.55.21l1.69.22c.42-.25.87-.37,1.32-.39l.7-.35.84-.56.5-.19c.72-.71,1.44-.18,1.79-.75l.52-.82.56-.81c.08-.12.24-.37.28-.5l.31-1.14c.1-.38.11-.66.55-.76l.35-.53c.13-.19.2-.33.32-.51l.73-1.21.47-1.12c.11-.26.36-.52.54-.72l.36-.41c.27-.31.3-.57.41-.97l.22-.81c.09-.32.04-.7.48-.85-.03.26-.08.51-.14.72l-.28,1.02-.44,1.07-.33.2.04.03.33.12c.65.23,1.39.3,1.95-.14.17-.13.31-.22.55-.22-.08.27-.26.41-.49.45-.42.44-.92.54-1.49.4-.37-.09-.71-.22-.89-.54h-.04l.05-.02Z"/>
    <path class="cls-14" d="M224.8,134.37c.05.08-.14.27-.26.23-.09-.02-.18-.14-.2-.26-.05-.27-.2-.36-.37-.55l-.32-.35-.86-1.02-.54-.75c-.17-.24-.31-.51-.4-.79l-.2-.63-.6-1.1c-.26-.21-.49-.51-.64-.84l-.7-1.03-.57-1.13c-.21-.11-.45-.27-.64-.5l-.75-.92-.18-.13s-.02-.09,0-.24c.03-.36-.48-.17-.53-.69-.02-.22-.15-.37-.36-.46v-.33c-.48-.37-.26-.68-.89-1.09l-.68-.44c-.1-.24-.23-.47-.5-.59l-.19-.55c-.26-.14-.47-.35-.58-.63l-.29-.71c-.18-.43-.48-.78-.78-1.14l-.21-.66-.15-.59-.27-.86-.02-.28s-.6-.51-.97-1.23l-.4-.79-.28-.57c-.19-.39-.3-.65-.56-.97l-.42-.51c-.13-.15-.33-.29-.5-.41-.45-.3-.52-.76-.88-1.13-.29-.3-.51-.59-.66-.97l-.36-.93.72,1.07.54.81,1.08,1.12.53.5c.18.17.26.28.41.5l.5.72c.18.72.49,1.32,1.02,1.87.2.21.31.47.38.73.13.15.26.34.33.54l.18.52c.17.85.5,1.6,1.02,2.32l.64.89c.12.17.2.49.22.69.23.21.41.43.58.77v-1.02c-.02-.28,0-.67.11-.93l.26-.7c.09-.24.15-.43.47-.58-.03.3-.16.5-.33.77-.36.57-.34,2.1,0,2.78.26.09.41.2.58.4.18.22.47.48.54.74s.15.35.28.55l.5.74.33.58.9,1.09c.37.07.5.37.56.7.32.21.54.49.6.87l.77,1.22.47.59c.15.18.23.33.33.51l.28.47c0,.3.11.51.24.77l.35.65.41.76c.16.3.37.48.59.73l.74.88.62.91h-.04Z"/>
    <path class="cls-14" d="M177.11,120.69c-.15-.04-.56.16-.62-.24-.06-.35.96,0,1.44-.12l1.07-.29c.18-.05.35-.08.52-.18l1.25-.76.71-.43c.57-.34,1.18-.67,1.6-1.18l.77-.94.25-.35c.22-.31.39-.63.53-.98l.24-.6.27-.58c.06-.14.26-.41.37-.51l.56-.5c.37-.04.51-.25.78-.45l.66-.51c.35-.27.66-.64.73-1.07l.15-.98c.04-.27.6-.38.85-.47l1.32-.44c.53-.17.89-.67,1.34-.98l.67-.47c-.03.17-.09.3-.15.35l-.87.76c-.58.5-1.36.82-2.07,1.01l-.82.21-.05.74c-.06.84-.5,1.48-1.25,1.86-.08.13-.24.33-.41.34-.33.02-.42.2-.62.4s-.68.34-.81.65l-.18.45-.22.6c-.1.28-.16.54-.32.8l-.36.58-.08.23c-.02.06-.17.08-.25.11-.35.64-1.08,1.56-1.61,1.83l-1.15.57-.56.4-1.07.59-.61.35-1.34.36c-.26.07-.47-.06-.65-.17h-.01Z"/>
    <path class="cls-14" d="M218.98,154.91c-.33-.23-.5-.54-.35-.9-.12-.49,0-.98.17-1.44.22-.62.52-1,1.08-1.41.19-.73-.28-1.08-.51-1.86l-.42-1.39c-.23-.28-.43-.61-.52-1-.1-.23-.23-.42-.37-.62l-.27-.38-.07-.35c-.3-.14-.49-.35-.67-.62l-.42-.42-.42-.46-.73-.72-.35-.34-.8-.71c-.1-.09-.36-.19-.51-.26-.22-.11-.34-.15-.59-.15l-.99-.03c-.48,0-.85-.18-1.33-.12l-.67-.06c-.24-.02-.6-.08-.8-.14l-.62-.19c-.58-.17-1.33-.42-1.57-.86.59.3,1.08.5,1.68.63l.53.12c.52.11,1.01.28,1.54.15.27.08.54.11.84.11l.91.06.88.13c.23.03.45.06.64.19l.67.47.82.74c.14.13.26.26.39.39l.53.53.56.66c.34.13.54.42.61.79.39.23.6.68.66,1.11l.51.78c.36.56.53,1.14.67,1.8l.37.89c.19.45.1.98,0,1.38-.5.34-.96.81-1.06,1.37l-.2,1.1c-.04.22.07.66.19.84.27.17.62.39.89.46l.66.18c-.56.36-1.18.06-1.55-.42v-.03Z"/>
    <path class="cls-14" d="M189.67,105.55l-.39.33c-.49,0-.9.28-.93.15l-.08-.27c-.22,0-.58-.08-.75-.26-.34-.35-.53-.81-.44-1.29.16-.82,1.35-.91,2.29-.7.31.07.72.02.85.43.06.21.13.63.02.82-.15.27-.36.61-.57.79Z"/>
    <path class="cls-14" d="M175.3,117.88l.13.69c.05.27.37.68.57.89.11.11.34.31.28.43-.19.31-.92-.44-1.07-.91l-.21-.67c-.06-.18-.13-.54-.13-.72,0-.6.26-1.09.21-1.44.27-.69.46-1.41.54-2.15l.33-.68.25-.53c.05-.12.29-.31.39-.39l.53-.36.72-.52.7-.61.32-.98.23-.55c.08-.2.16-.32.32-.54-.58-.6-1.36-.54-1.65-1,.36.03.59.1.87.22l.91.37c.12.05.32-.18.4-.3.46-.65,1.78-1.14,2.06-.42-.6-.29-1.2.09-1.75.51-.7.54-1.03,1.54-1.33,2.4l-.31.65c-.14.31-.3.42-.55.6-.12.1-.25.28-.44.3-.32.04-.48.18-.68.42l-.37.44c-.41.28-.5.66-.57,1.12l-.09.61c-.09.58-.16,1.16-.49,1.71l-.11.67c-.03.17-.04.54,0,.71v.03Z"/>
    <path class="cls-14" d="M176.05,139.99l.85.38c-.32.29-.65-.08-.91-.06-.51.02-.77-.17-1.11-.5l-.72-.7c-.39-.38-.79-.9-.86-1.44l-.07-.5-.03-1.04c.12-.24.18-.48.04-.74.18-.67.24-1.37.53-2l.62-1.33c.04-.08.25-.2.31-.23.21-.55.69-.82,1.21-1.03.77-.31,1.42-.75,2.42-.49-1.33.23-2.28.66-3.32,1.49-.11.09-.17.3-.24.4-.3.46-.52.85-.66,1.36-.12.46-.32.91-.38,1.4l-.1.84.02.92.04.7c.13.45.43.85.7,1.24.22.33.44.74.79.92l.85.43.02-.02Z"/>
    <path class="cls-14" d="M178.05,119.02c-.57.35-.35.69-.53.83-.06.05-.27.05-.29-.02-.1-.43.35-.39.28-.94l.5-.82.71-1.31.42-.92.26-.53.21-.41.25-.61.39-.7.45-.79c.23-.41.44-.79.76-1.12l.58-.62.6-.59c.21-.21.5-.44.66-.67.47-.64,1.11-.9,1.87-1.07.27-.06.49-.36.86-.24l-.9.43-.67.31c-.35.16-.57.37-.82.66l-.42.45-.56.61c-.7.36-1.04.92-1.34,1.63l-.51.79-.42.82-.27.57-.22.49-.77,1.55-.39.85-.3.51-.31.49-.07.35v.02Z"/>
    <path class="cls-14" d="M186.47,141.03l1.35.25.75.04.46.02h.97c.44,0,.76-.09,1.17-.26s.9-.29,1.31-.53l.56-.32c.61-.35,1.22-.68,1.89-.91.46-.15.78-.43,1.11-.74l.38-.36.43-.43.88-.77c.32-.28.63-.54,1.06-.62-.21.49-.63.63-.96.93l-1.41,1.32c-.15.14-.23.35-.43.45l-2.08,1.04-1.02.57-1.6.74c-.43.02-.87.08-1.28.23l-1.65-.07-1.01-.21-.9-.24.02-.12h0Z"/>
    <path class="cls-14" d="M214.24,92.89c-.13-.03-.45,0-.55-.08-.18-.18-.32-.17-.52-.19-.45-.05-.83-.5-1.17-.76-.15-.12-.3-.23-.41-.38-.19-.26-.37-.38-.63-.57-.23-.16-.47-.49-.64-.72l-.42-.58-.35-.49c-.18-.24-.35-.45-.58-.64l-.74-.59-1.24-.87-.5-.32-.55-.17c-.43-.13-.75-.35-1.08-.61-.28-.22-.62-.32-.8-.7l1.05.58.86.38c.22.09.42.12.6.25l.56.41,1.05.7c.48.32.92.65,1.3,1.1l.46.55.39.51.85.98c.23.27.36.47.64.68.3.23.58.48.92.67l.73.39.8.22.73.25c-.32.23-.47.06-.78,0h.02Z"/>
    <path class="cls-14" d="M175.9,107.69l-.58-.27c-.42-.19-.79-.31-1.17-.55l-.51-.16-.42-.08c-.37-.17-.65-.06-.94.16-.38.29-1.33,0-1.69-.44l-.57-.21-.84-.12c-.39-.06-.95.06-1.3.18l-.85.3-1.37.51c.35-.45,1.64-1,2.17-1.07l1.39-.18c.22-.03.45,0,.64.06l.57.22.53.22.9.43.27-.22,1.21-.14c.17-.02.51.13.67.19l.63.21.56.29c.71.36,1.1.3,1.03.62-.02.08-.22.1-.3.07l-.03-.02Z"/>
    <path class="cls-14" d="M179.06,99.27c.05.17.07.3.07.49-.6-.42-.97-1.11-.92-1.77-.28-.52-.23-1.11,0-1.59-.05-.16-.04-.3,0-.47l.1-.55c.4-.32.45-.79.81-1.27l.95-1.26.1-.17s.13,0,.2.04c-.13.47-.39.91-.72,1.29l-.1.28c-.39.32-.76.91-.76,1.36-.42.33-.42.78-.27,1.26l.15,1.05.39,1.3h0Z"/>
    <path class="cls-14" d="M210.8,149.23c-.17.53-.67.43-1.07.37-.35-.05-.75.05-1.09-.11s-.75-.58-.85-.94c-.16-.59.15-1.15.09-1.72-.03-.29-.11-.69-.21-.94l-.5-1.21c-.16-.39-.36-.66-.69-.91-.66-.5-.96-1.27-1.15-2.05-.07-.28-.08-.53.07-.77,0,.96.63,2.06,1.28,2.65.47.43.8.89.99,1.51l.43,1.37.06.86c.04.52-.24,1.01.05,1.55.12.22.47.33.73.39l.82.19,1.05-.22v-.02Z"/>
    <path class="cls-14" d="M218.15,101.73c-.11-.34,0-.6.1-.92l.2-.57.17-.83v-.44l-.03-1.63c.51.34.62,1.51.6,2.13.06.37-.06.64-.2.99l-.22.54c-.12.3-.29.49-.62.72h0Z"/>
    <path class="cls-14" d="M201.34,136.39c-.55.36-1.4.43-1.83-.03h.98c.74-.15,1.29-.64,1.83-1.08l.9-.74c.33-.27.61-.42.94-.68l.93-.75c.06-.21.15-.56.27-.73.6-.83.41-1.27.8-1.6.25.36.07.58-.04.89l-.17.51c-.08.24-.15.55-.33.72-.54.5-.7.96-1.11,1.18s-.76.48-1.09.76l-.99.84-1.08.71h0Z"/>
    <path class="cls-14" d="M221.51,155.12l.82-.26c.53-.17.9-.49,1.61-.78.24-.1.5-.51.63-.76l.36-.73.64-.86.4-.36c.6-1.05.17-1.92.63-2.24-.17.66.08,1.29-.22,2.04l-.56.62c-.45.5-.75,1.03-1.04,1.65l-.34.53c-.29.45-.86.61-1.33.82l-.7.32-.73.33s-.22-.03-.26-.05c-.06-.02.02-.24.08-.26h0Z"/>
    <path class="cls-14" d="M226.26,142.24l-.05-1.11-.02-.49v-.44l-.1-.64-.05-.56-.15-1.27-.46-1.35-.25-.64-.31-.65c-.03-.06.04-.24.09-.28s.22.1.24.17l.91,2.47.07.48.17,1.61.04.74.05.62v.58l.02,1.08c-.08-.02-.22-.22-.23-.33h.03Z"/>
    <path class="cls-14" d="M180.38,141.61s-.08.14-.12.13l-.24-.08-.62-.2c-.15-.05-.26-.11-.38-.23-.4.07-.9-.1-1.03-.6l.85.29.5.19.73.24c.13.04.27.11.36.17l.04.02c.46-.07,1.03-.03,1.51.14.32.11.6.03.95.04l.96.02c.26-.19.71-.39,1-.13,0,.31-.4.5-.7.45-.23-.04-.43.08-.61.17-.39.19-.82-.07-1.2-.09-.73-.03-1.51.06-1.96-.48l-.03-.03v-.02Z"/>
    <path class="cls-14" d="M181.41,89.98l-.04.99-.09.05c-.16-.71-.11-1.97.19-2.57l.38-.77.65-1.07c.19-.31.4-.62.67-.85l.47-.39.62-.37.17-.08s.16.07.13.09l-.18.15-.52.43c-.15.13-.34.22-.47.38l-.5.62-.79,1.22c-.17.27-.3.48-.41.8-.07.21-.21.48-.22.69l-.06.68h0Z"/>
    <path class="cls-14" d="M195.59,98.8l-.49-.68.27-.48c.11-.2.33-.44.54-.47.23-.03.64.11.69.35.08.33.06.66-.04.99l-.97.29h0Z"/>
    <path class="cls-14" d="M195.67,106.6c-.33-.02-.99.11-1.21-.37.39-.24.86-.16,1.25-.08l.58-.09c.12-.02.33-.12.46-.17.67-.28,1.17-.66,1.65-1.26.03.33-.13.74-.37.9l-.38.26-.82.61c-.25-.02-.43-.03-.54.24l-.62-.03h0Z"/>
    <path class="cls-14" d="M183.42,107.29l.95.18c-.32.31-.67.21-.95.05-.12,0-.41,0-.51-.08l-.69-.51c-.18-.13-.32-.61-.42-.8-.26.03-.6.02-.76-.12l-.51-.46c-.37-.34-.44-.9-.46-1.41l.47.9.37.52.83.15.25-.25c.1.42.07.83.3,1.1l.41.49.73.25h-.01Z"/>
    <path class="cls-14" d="M174.51,115.91c-.18.26-.53-.1-.98.28h-.74l-1.02-.07c-.33-.02-.7,0-.97-.25-.08-.08-.3-.19-.39-.25l-1.03-.95c.83.11,1.25,1,2.04,1.05l.8.05h1.26c.22.1.46.12.67-.07l.27-.03c.06,0,.12.18.09.23h0Z"/>
    <path class="cls-14" d="M215.48,105.75l-1.29.27c-.09-.31.18-.27.3-.35l.76-.54c.18-.13.28-.22.43-.42l.38-.5,1.11-1.03c-.07.56-.57,1.3-.92,1.65l-.46.45-.29.49-.02-.02Z"/>
    <path class="cls-14" d="M186.85,98.14c.29.22-.05.94-.36,1.12-.2.12-.45.02-.67-.11l-.26-.16c-.13-.08-.03-1.13.72-1.3l.57.44h0Z"/>
    <path class="cls-14" d="M180.94,128l-.38,1.02c-.06.15.06.51-.17.6-.24-.11-.11-.44-.09-.63.05-.42.11-.77.38-1.08.32-.93,1.42-1.47,2.45-1.68.58-.12,1.13-.28,1.72-.23l-1.04.29c-.42.12-.85.18-1.23.39l-1.23.67-.41.65h0Z"/>
    <path class="cls-14" d="M206.11,99.99c-.28-.11-.56-.29-.76-.5l-.35-.37-.26-.5c-.2-.39-.25-.75-.39-1.18l-.23-.71c-.11-.33-.09-.66-.04-.99l.17-1.04c.07.76.05,1.4.2,2.06l.13.55.45,1.2c.06.16.27.48.39.6l.4.41c.14.14.24.17.3.47h-.01Z"/>
    <path class="cls-14" d="M220.64,126.02c-.14-.04-.02-.36.12-.48.4-.34.62-.84.89-1.28.17-.27.18-.53.2-.86l.09-1.52c.44,1.16.25,1.71-.07,2.72-.15.47-.43.8-.78,1.13-.09.09-.14.34-.46.29h.01Z"/>
    <path class="cls-14" d="M209.64,106.85h-.46c-1.36.02-2.01-.63-2.38-1.9-.29-.52-.32-1.09-.41-1.66l-.09-.56c-.05-.31-.04-.58.05-.88l.15,1.03.29,1.29c.14.63.32,1.22.75,1.73l.35.41,1.36.36c.11.03.37-.12.39.16v.02Z"/>
    <path class="cls-14" d="M192.92,106.9c-.16.28-.23.35-.39.55-.72.08-1.52.15-2.2-.15-.6-.27-1.31-.27-1.63-.9.24-.07.4.14.59.21l.88.34,1.7.21,1.06-.27h0Z"/>
    <path class="cls-14" d="M212.16,148.3c-.26.27-.52.53-.88.64l.85-.99.17-.6c-.05-.28-.09-.59-.05-.87l.14-1.06.02-.72c-.31-.42-.32-1,0-1.47.32.13.08.4.09.53l.1.92c.02.2.09.43.06.66l-.15,1.05c-.09.64.07,1.3-.33,1.91h-.02Z"/>
    <path class="cls-14" d="M203.75,140.09c1.04.38,1.83.13,2.88.36-1,.31-2.09.21-3.1-.14l-.56-.28-.98-.72c-.22-.17-.42-.32-.52-.63l1.47,1.04c.25.17.54.28.82.38h-.01Z"/>
    <path class="cls-14" d="M194.46,112.35c-.23-.07-.44-.13-.52-.35,1.06.28,1.57.41,2.48-.21l1.09-.72c.45-.41.85-.82,1.39-1.09l.38-.79c.1.39-.13.79-.43,1s-.52.42-.81.67l-.85.72c-.17.14-.45.27-.67.37-.57.51-1.29.62-2.06.39h0Z"/>
    <path class="cls-14" d="M218.25,95.97l-.33-.78c-.26-.25-.46-.48-.66-.76l-.45-.35c-.27-.21-.47-.33-.81-.49,0-.04.19-.22.27-.18l.32.15c.38.17.68.4.99.64.28.22.45.49.64.83.22.39.45.73.26,1.07-.03.05-.2-.07-.22-.13h-.01Z"/>
    <path class="cls-14" d="M189.55,122.42c.07.03.11.27.06.28-.07,0-.17,0-.26,0-.67-.08-1.18-.33-1.68-.74-.14-.12-.31-.24-.42-.38-.39-.54-.83-1.2-.45-1.41,0,.11,0,.38.07.46l.59.68.44.45,1.64.67h0Z"/>
    <path class="cls-14" d="M201.68,107.69c-.33.28-.7.45-1.06.5.25-.15.46-.27.65-.43l.64-.53c.79-.65,1.47-1.45,1.9-2.39l.17-.51c.18-.54.19-1.13.57-1.63-.04.49-.15.96-.31,1.39l-.44,1.18c-.15.41-.52.81-.78,1.2-.23.34-.57.57-.88.83l-.46.39h0Z"/>
    <path class="cls-14" d="M227,146.34c.6,1.3.14,1.82.04,1.62-.02-.05-.05-.15-.06-.2l-.14-.85c-.07-.41-.22-.74-.44-1.1-.14-.22-.15-.53-.16-.8l-.04-.89-.02-.73.03-.16s.1-.04.11,0l.02.19.05.75c.02.24-.07.68.04.93l.57,1.25h0Z"/>
    <path class="cls-14" d="M213.45,106.24c.27.2-.27.88-.78,1.24-.4.28-.89.19-1.32,0s-.86-.7-.7-.96c.34.27.67.61,1.03.71.54.16.96-.16,1.29-.49l.48-.49h0Z"/>
    <path class="cls-14" d="M202.59,84.58c-.17.44-.84-.14-1.3-.5-.15-.12-.49-.21-.67-.38l-.49-.45c-.34-.31-.71-.4-1.18-.56.3-.02.57.03.87.08.27.05.47.26.7.4.35.22.67.44.94.74.38.06.95.33,1.13.67Z"/>
    <path class="cls-14" d="M189.31,124.26l-1.34.14-1.05.24c-.27.06-.47.22-.7.38l-.83.57c-.08-.2.05-.35.22-.5.24-.22.49-.3.76-.43.95-.44,1.9-.72,2.95-.64l.71.05c-.22.18-.46.16-.73.19h0Z"/>
    <path class="cls-14" d="M190.23,82.35c-.28.31-1.28.16-2.24.46l-.58.18-1,.46c.9-1.03,1.93-1.2,3.24-1.22.21,0,.38,0,.58.12Z"/>
    <path class="cls-14" d="M195.97,82.38l-.7-.35c-.15,0-.34-.05-.51-.1l-.58-.17-.63-.16-1.02-.14c.14-.16.36-.19.56-.18l.88.04c.5.02,1.07.16,1.4.48.17.17.55.11.59.57h.01Z"/>
    <path class="cls-14" d="M164.12,110.72c-.06.87.69.86.69,1.25-.56-.13-1.01-.67-1.02-1.21-.03-1.16.18-2.16,1.31-2.2-.49.22-.88.54-.91,1.08l-.07,1.09h0Z"/>
    <path class="cls-14" d="M187.3,107.62c-.37.35-1,.35-1.55.1.55-.05,1.07-.06,1.45-.46l.48-.5c.19-.2.4-.35.69-.44.02.4-.29.55-.52.78l-.54.53h0Z"/>
    <path class="cls-14" d="M167.76,114.48c-.06.21-.31.25-.55.25-.91,0-1.54-.86-1.75-1.85.21.06.28.19.4.36l.59.81c.29.4.71.47,1.31.43h0Z"/>
    <path class="cls-14" d="M221.74,117.83c-.37-.35-.1-.72-.06-1.04l-.07-.51c-.08-.59-.31-1.09-.57-1.65.85.71.9,1.25.91,2.25,0,.33-.03.6-.2.94h0Z"/>
    <path class="cls-14" d="M179.88,102.61c.08.31.49.6.38,1.02-.46-.13-.65-.57-.62-.99-.35-.49-.57-1.21,0-1.69l-.07.4.32,1.26h0Z"/>
    <path class="cls-14" d="M221.9,121.73c-.25-.37.11-.73.13-1.06v-.6l.1-.94.21,1.09c.06.33-.03,1.18-.44,1.51h0Z"/>
    <path class="cls-14" d="M199.47,100.89c.64.49.59,2.22-.21,2.56-.02-.27.16-.53.26-.78.24-.6.09-1.17-.04-1.78h0Z"/>
    <path class="cls-14" d="M216.77,116.34l-.08.77c-.27-.51-.1-1.07.07-1.62.25-.85.81-.82.81-.71,0,.3-.63.57-.69.92l-.11.65h0Z"/>
    <path class="cls-14" d="M220.69,113.98c-.29.13-.41-.27-1.05-.17-.31.05-.41.21-.62.52-.04-.56.49-.87.96-.86.34,0,.67.13.7.51h0Z"/>
    <path class="cls-14" d="M181.95,105.44c-.25-.4-.07-.78.15-1.13l-.15,1.13Z"/>
  </g>
  <g>
    <path class="cls-14" d="M398.61,114.81l.1.9.54.57.06.95-.52,1.32c.18.46.12.84.08,1.29-.03.28-.03.48-.15.78-.1.24-.16.78-.41.89-.33.15-.54.24-.73.53-.14.21-.36.16-.57.1l-.41-.12.43-.54c.35-.16.61-.36.85-.66l.28-.35c-.14-.3-.05-.56.17-.8-.05-.5-.12-1.08.03-1.53l.19-.55c.26-.39.25-.7.16-1.14-.06-.29-.05-.6-.33-.8-.43-.31.13-1.1-.16-1.48l-.4-.52c-.22.11-.5.19-.77.17l-.8-.05-.91-.14c-.32-.05-.56-.04-.89-.19l-.77.07c-.23.26-.68.26-.94.23l-.29.17-.32-.11c-.28.11-.64.28-.95-.05l.58-.2.02-.87c0-.4-.14-.8-.02-1.25.4.57.49,1.27.34,1.92-.07.04-.13.07-.14.09l-.07.16s.19,0,.23-.02c.12-.08.38-.13.52-.18.38-.12.68-.22,1.07-.22h.7c.34-.02.57.04.92.08l.92.1.78.03.66-.07.68-.2c.31-.09.47-.2.55-.49l.18-.36.08-.8-.63-1.2-.45-.36c-.23-.19-.59-.18-.89-.24-.18-.04-.29-.06-.46,0l-1.31-.37c-.18-.05-1.12-.78-1.29-1.24.3.07.54.27.77.48.53.51,1.14.73,1.85.75l.5.02c.82.03,1.87.9,1.98,1.46l.26,1.23c.26-.04.46-.04.72-.02l.52.05.84.41.73.38c.18.1.33.19.48.35.38.16.71.42.94.8.39.13.63.43.66.86.32.13.53.4.5.77l.16.71c.2.45.07.97-.23,1.35.14.55-.1.98-.4,1.42-.09.22-.24.38-.43.44.2.54-.06,1.06-.54,1.26.06.58-.35.95-.59,1.42l-.35.67c-.3.17-.45.31-.63.58s-.52.15-1.02.34c-.07.03-.1-.24-.1-.32-.34.49-1.53.61-1.93.52l-1.03-.24c-.55-.13-1.11-.41-1.39-.97l.99.5c.48.24.92.31,1.47.32,1.67.06,2.13-1.05,2.38-1.04l.41.02c.09,0,.2-.19.27-.25l.42-.32c.03-.56.37-1,.78-1.34l.16-.87.55-.35c-.17-.59.21-1.34.55-1.88l.08-1.47c-.19-.35-.31-.78-.31-1.17-.25-.17-.41-.38-.62-.59l-.76-.77c-.08-.08-.28-.14-.39-.16l-.63-.46c-.34-.24-.7-.39-1.1-.52-.63-.2-.9.06-1.24-.33l-.13.64c-.07.34-.97.64-.99.85,0,.08.08.21.15.29.22.25.12.58.16.91h0Z"/>
    <path class="cls-14" d="M409.99,123.69c-.2.04-.5.27-.64.41l-.44.4c-.43.4-.98.38-1.29.64-.62-.28-.81.14-1.28.05-.13-.02-.26-.2-.3-.36l.62-.28c.31.07.49,0,.76-.06l.69-.19c.18-.05.4-.13.55-.23l.48-.33c.18-.12.22-.29.22-.57l.48-.46c.06-.19.17-.5.31-.63.33-.3.38-.56.45-1l.11-.72-.04-.6-.07-.68-.15-.56c-.17-.26-.37-.53-.3-.89l-.5-.66-.52-.53-.5-.5c-.37-.17-.65-.36-.87-.66-.37-.11-.9-.15-1.23-.36-.31-.2-.52-.2-.89-.29l-.84-.2c-.06-.02-.17-.2-.13-.24.05-.06.16-.09.26-.08l1.11.11c.65.06,1.31.31,1.75.85.48-.04.84.26,1.15.62.45.17.87.46,1.13.87l.52.84c.19.3.42.56.43.94.18.22.22.38.2.78l.54.02.83.22.84.56.05-.59c.15-.34.2-.5.3-.9l.6.08c.14.02.35.27.49.34l1.37.66-.37.75c-.09.18-.02.67-.14.82l-.51.65c.49.37.63.72.72,1.21.13.7-.53,1.09-1.25,1.16l-.7.29c-.56.13-1.1.02-1.66-.1l-.62-.04c-.17,0-.49-.02-.64-.08l-1.07-.45v-.03ZM415.4,120.78l.39-1.16-.79-.3c-.27-.32-.75-.66-.95-.64-.3.02.09.81-.57,1.44l.85.66.81.73.26-.72h0ZM411.19,121.99c.37-.33.57.18.98.25l.15-.92-.06-.47c-.29,0-.4-.17-.6-.37l-.24-.23s.11-.23.15-.19l.59.4.42.16c.43.16.84.49,1.33.37l-.26-.28c-.19-.23-.4-.38-.65-.55-.46-.3-.88-.62-1.45-.71-.07,0-.26,0-.25.05l.02.23c.02.23-.01.44-.04.66l-.06.63c.05.24.01.48-.17.65,0,.87-1.15.87-.91,1.73l1.46.4-.46-.43c-.19-.18-.52-.24-.41-.68l.71.63c.24-.18.49-.51.56-.71l-.81-.63h0ZM413.54,123.2l-.52.15.03-.21c-.28-.07-.49-.14-.66-.22l-.6.55c.34.28.78.36,1.24.35l.99-.02c.4,0,.6-.07.91-.32.16-.12.49-.2.63-.42l-.3-.54c-.11-.2-.19-.32-.36-.49l-.73-.73c-.19.04-.49.08-.66.04l-.82-.21.02.93-.13.28c-.03.06.13.19.19.24l.41.29c.33-.15.47-.45.41-.82l.29-.57c.36.73-.21,1.03-.3,1.67l.05.02c.14-.06.4-.14.57-.16l.86-.09c-.33.63-.9.7-1.46.33l-.04-.03-.02-.02Z"/>
    <path class="cls-14" d="M372.11,143.2c-.17-.21-.33-.47-.38-.76l-.25-1.52-.26-1.16-.14-.75-.15-.8c-.1-.53-.14-1.06-.12-1.6-.15-.24-.19-.55-.12-.87-.17-.25-.22-.58.05-.86l.09.9c.14.25.18.54.17.8.17.49.25.99.34,1.51l.14.82.18.76.22,1.23.34,1.38c.08.31.25.71-.07.9l.05.03s.2.16.22.23l.44,1.27.28.92c.1.33.16.65-.12.81l.05.04c.06,0,.16.08.18.15l.15.52c.09.32.1.58.07.92l.07.48c.04.26.06.55,0,.81l-.16.78-.16.73-.14.75c-.02.13.07.42.02.55-.12.33-.09.6,0,.9l.12.4.14.43.47.81c.05.09.22.21.31.19.36-.07.3-.42.68-.57l.56.58c.11.11.48.19.64.19.45,0,.87-.43,1.14-.72.07-.06.3.05.35.12.14-.23.25-.52.23-.76l-.06-.88c-.02-.24-.05-.43-.11-.67l-.08-.51c-.14-.36-.19-.71-.26-1.1l-.1-.61-.07-.98-.14-.56-.14-.57-.11-.72-.05-1.1v-2.08l.04-.71c0-.08-.01-.26-.02-.34l.15-1.11c.05-.4.27-.9.44-1.27l.22-.47c.07-.15.17-.44.26-.56.13-.17.24-.23.23-.52l.46-.32-.04.57c-.19.16-.2.26-.26.52-.05.22-.45.55-.5.77l-.22.87-.25.92c-.06.21-.08.64-.06.86l.06.5-.02.6v.79c.02.94-.04,1.88.2,2.78l.13.48.02.69.16.86.07.66.2,1.12c.04.2.14.52.12.71-.01.09.09.31.11.4.03.57.01,1.22-.14,1.78-.09.32-.62.3-.78.16-.22.64-.92.93-1.56.71-.28-.09-.58-.52-.76-.74-.18.25-.51.62-.78.65l-.9-.55-.51-.97c-.23-.44.02-1.23-.18-1.92l.18-.34c-.02-.27-.01-.48.04-.73l.15-.82c.12-.65.19-1.33.18-2l-.13-.8.07-.7s.02-.03,0-.04l-.29-.39c-.05-.07-.02-.31-.03-.4l-.16-.77-.16-.18s.03-.21.01-.28l-.25-1.18v-.09.04Z"/>
    <path class="cls-14" d="M381.19,142.62l-.22-.61c-.02-.06-.02-.15,0-.21s.23.03.25.09l.23.68.22,1.07.12,1.39c.07.76-.21,1.37-.49,2.05l-.26.63c-.21.51-.57.97-.71,1.51l-.34,1.3c-.15.57.22,1.09.62,1.46l.65-.06s.15-.16.17-.2c.03-.06.2.18.26.2.29.06.8,0,1.12-.07.14.05.44.15.57.12s.31-.22.42-.34c.31-.32.19-.54.22-.96l.05-.74c.01-.2,0-.34,0-.52l-.04-.81v-1.12c0-.41-.11-.71-.03-1.08l.18-.81.18-1.11c.05-.31.11-.49.31-.76.11-.15.04-.53.1-.74l.29-1,.31-.74v.45c.17.31.14.53.04.85l-.36,1.21-.13.82c-.06.41-.15.7-.29,1.08-.11.28-.09.7-.13,1.03l-.12,1.03.09.44v1.51c0,.52.07,1.04-.22,1.55.12.39-.09.76-.46.93-.28.2-.63.19-.9-.02l-.7.29-.77-.22c-.32.12-.55.1-.81,0-.16,0-.6.08-.7-.07-.63-.91-.29-1.09-.32-1.7-.02-.5.06-.82.27-1.25l.76-1.56.37-.71.39-1.29c.13-.44.03-2.43-.17-2.99h-.02Z"/>
    <path class="cls-14" d="M351.8,153.24c.27.15.41.25.61.31.15.05.5-.08.54-.26.08-.33.09-.76-.01-1.03-.4-1.05-.51-3.07-.21-4.12l.55-1.9.47-.65c.16-.44.26-.95.57-1.27.2-.22.3-.3.39-.62.06-.25.38-.53.51-.76.12-.2.2-.33.36-.48l.46-.46c.18-.34.35-.59.63-.83l.3-.4c.2-.26.49-.37.77-.52l.51-.28,1.59-.87.68-.37c.25-.14.53-.15.82-.18l.29-.03c.06,0,.15.12.18.16.06-.2.3-.55.47-.52.83.1.74-.39,1.39-.29l.49-.13c.44-.12.86-.33,1.33-.24.38-.15.76-.2,1.19-.18.83-.38,1.24-.12,1.56-.31.13-.08.3-.13.4-.07.13.07.2.26.13.37-.27.44-.67-.17-1,.27l-1.14.11-1.04.26-.73.23c-.4,0-.82-.06-1.13.17-.16.12-.34.18-.54.16l-.4-.03c-.1,0-.23.24-.31.32-.3-.07-.6-.15-.85,0l-.45.3-.87.45-1.8.83-.51.28-.95.76c-.13.4-.33.65-.67.89l-.36.49-.44.52c-.16.34-.39.66-.7.88-.21.57-.46,1.07-.81,1.58-.13.19-.21.46-.28.68l-.38,1.13c-.19.56-.41,1.2-.39,1.78l.04,1.48.44,1.74c.12.47-.13.95-.5,1.17-.39.23-.68.13-.99-.15-.1-.09-.23-.27-.18-.36l-.03-.02Z"/>
    <path class="cls-14" d="M397.95,153.03s-.13.09-.15.05l-.11-.2-.21-.51-.38-.95-.28-.88c.09-.38-.05-.64-.13-.98-.12-.54-.11-1.09-.11-1.61,0-.36.1-.62.23-.95l.16-.41c-.06-.13-.08-.29-.05-.45.09-.47-.02-.72.19-1.49l.26-.96.24-.95c.14-.55.29-.99.35-1.57l.17-1.59c.02-.22-.16-.57,0-.84-.17-.25-.23-.5-.2-.77l-.18-.91c-.32-1.64,0-1.63.28-2.42.09-.26.22-.52.22-.79l.02-.75.05-.76c.05-.72.13-1.44.34-2.14.17-.57-.12-.68.03-1.51.11-.61.18-1.57-.02-2.02-.15-.35-.24-.65-.26-1.03-.01-.31-.28-.44-.62-.54.17-.1.46-.15.7-.14.42.59.49,1.29.53,1.97l.05.89v.57l.07.59-.06.94v.94l-.25,1.51-.16,1.02c-.07.42-.04.97-.24,1.34-.29.53-.42,1.31-.3,1.87l.13.61.11.64c.05.3.11.55.06.85.15.26.22.59.09.89v1.22c0,.24-.04.49-.13.72-.19.47-.26.9-.38,1.39l-.23.88-.18.58-.1.81c-.03.25-.15.44-.2.67l-.19.79c-.02.11-.04.36-.01.47.08.33,0,.57-.01.88l-.04,1.23v.92c.08.24.16.59.21.89.36.6.74,1.24.7,1.98h-.01Z"/>
    <path class="cls-14" d="M353.22,138.43s.03-.22.04-.28c0-.06.19-.13.22-.2l.28-.64.24-.47c.1-.29.13-.49.48-.6l.3-.73.47-.54.4-.41c.27-.29.43-.64.88-.7l.53-.98c.13-.24.59-.46.76-.85l.28-.22c.07-.05.03-.26.03-.35l.14-.31.49-.87.23-.47.26-.54c.13-.28.3-.53.51-.79l.07-.39.22-.67.61-1.44c.1-.44.29-.84.56-1.19.02-.52.3-.86.73-.94-.21-.33-.04-.68.2-.93.16-.17.21-.36.3-.59l.24-.62c.04-.11.17-.37.24-.46l.8-1.04.71-.87c.2-.24.48-.44.71-.63l1.16-.93c.21-.17.42-.3.68-.43.33-.23.67-.39,1.09-.43.36-.33.83-.52,1.3-.58l.66-.32.6-.26c.42-.18.88-.28,1.37-.15l-1.02.43-.76.31c-.21.15-.45.25-.72.28-.42.31-.92.48-1.41.49-.24.33-.63.38-1.21.77-.3.21-.51.39-.77.69l-.77.53-.69.64c-.2.19-.35.58-.52.78-.33.39-.58.77-.82,1.21l-.3.55c-.09.16-.18.29-.34.42-.04.47-.23.92-.7,1.2.1.45-.1.8-.45,1.04l-.28.91-.67,1.89-.26.52-.26.35-.24.81-.33.7-.27.43-.4.82-.45.6c-.17.23-.23.42-.38.62-.38.51-.72.98-1.2,1.38l-.22.66-.55.28-.38.43c-.19.4-.38.74-.81.94l-.11.52-.3.44c-.3.44-.61.96-.7,1.5-.04.24-.08.4-.26.54-.08.05-.19.12-.24.09-.06-.04-.13-.17-.17-.29-.09-.22.06-.51.19-.65h-.02Z"/>
    <path class="cls-14" d="M375.28,101.15l-.71-.11c-.21-.16-.36-.26-.62-.36-.24-.09-.32-.44-.45-.65-.26-.42-.52-.82-.64-1.3l-.38-1.55-.16-.86c-.04-.23-.38-.5-.2-.79-.12-.09-.26-.24-.28-.34-.05-.3-.19-.47-.33-.72l-.3-.55-.27-.62-.14-.5c-.16-.58-.49-1.09-.55-1.35l-.23-1.04-.15-.67c-.08-.38,0-.86.04-1.26.07-.66.34-1.43.82-1.85.52-.46.64-1.19,1.61-1.97.23-.19.5-.31.8-.23-.58.32-.95.73-1.3,1.24l-.29.43-.83,1.16c-.16.22-.26.48-.3.75l-.16,1.45c-.08.68.04,1.3.36,1.91l.22.57.45,1.23c.07.18.17.34.27.52l.33.59.33.81.28.69c.44,1.09.27,2.14.7,2.79.28.42.45.81.55,1.3l.65.65.9.4.48.22c-.18.19-.28.05-.52.02h.02Z"/>
    <path class="cls-14" d="M393.22,122.35c.56-.14,1.45.08,1.07.4l-1,.45c-.62-.27-1.04,0-1.44-.2-.3.13-.7.16-1.01.08-.15.04-.38.08-.56.05-.26-.3-.54-.28-.89-.17l-1.35-.42-1.01-.48-1.07-1.02c-.2-.19-.48-.58-.64-.84-.44-.7-.68-2.13-.45-2.48.03-.04.18-.09.2-.04l.09.23c-.04.78.22,1.47.61,2.12.1.28.3.49.48.72.29.36.62.56,1.03.81.34.21.61.4,1.04.48l1.28.24c.13.03.44.21.48.14.01-.28.04-.52.21-.62.12-.07.37,0,.52.1.19.15.21.35.1.58l.78.1s.1.18.13.16.13-.08.16-.09l1.22-.31h.02Z"/>
    <path class="cls-14" d="M390.44,114.51c.08.02.24.23.21.33-.11.43-.55.49-.6.41l-.2-.33-.43.26-.59.57-.51.48c-.39.36-.84.6-1.39.66-.21.2-.47.31-.75.37-.33.13-.63.21-.96.26l-.52.07c-.82.11-1.41-.2-2.09-.67-.4-.28-.74-.67-.94-1.16-.25-.61-.03-1.33.14-1.96l.27-1.02c.21-.8.79-1.13,1.59-1.44l.85-.32.97-.4c.62-.25,1.11-.53,1.6-1.06-.13.48-.49.79-.89.98l-1.33.65-.59.21c-.47.17-1.03.36-1.39.58-.5.55-.67,1.07-.77,1.72l-.09.54c-.09.52-.28,1.16.05,1.61l.68.93c.25.11.69.31.94.34l.82.11c.36.05.79-.03,1.13-.16l.82-.31.85-.34.7-.35c.26-.51.69-.87,1.23-1.08.12-.32.35-.54.67-.65.26-.39.65-.64,1.18-.44l-1.19.65.51-.05h.02Z"/>
    <path class="cls-14" d="M398.62,99.08l.4-.89.21-.67.18-.69c0-.34.22-.61.53-.74.05-.46.36-.78.75-1l.69-1.13.19-.62.15-.71.37-1.52.1-.99.14-.92.07-.96-.13-.87-.21-.27-.36-.71s.05-.2.09-.18c.06.02.21.09.24.15l.37.63.3.59.04,1.82c0,.26-.02.48-.05.74l-.15,1.05-.24,1.59c-.04.26-.14.48-.23.72l-.23.58c-.2.49-.38.89-.87,1.17l-.44.78c-.39.11-.39.35-.51.65-.13.33-.24.64-.31.98l-.1.52c-.05.28-.51,1.05-.87,1.14-.06,0-.14-.16-.11-.22v-.02Z"/>
    <path class="cls-14" d="M394.68,154.2l-.66.47-.79-.28c-.42-.56-.5-1.08-.29-1.69l.33-.98.05-.52.16-.86c.15-.77.13-1.52-.01-2.28l-.19-1-.33-1.15c-.05-.19-.03-.48-.18-.64-.1-.1-.09-.41-.11-.54l-.25-1.19-.07-.88-.05-.95-.11-.63-.08-1.13-.09-1.9c-.02-.37-.04-.69.18-.99v1.1l.24,1.75.12,1.16-.04.57.09,1.04.17.86.23,1.15c.04.2.14.39.11.62-.02.16.06.3.13.47.33.8.55,1.66.7,2.53v1.36s-.18,1.94-.18,1.94c-.47.58-.69,2.1-.46,2.25l.49.33.9.02h-.01Z"/>
    <path class="cls-14" d="M376.52,97.73c-.4-.12-.89-.7-.73-1.16l-.34-.48c.37-.55-.06-.86.1-1.54l.19-.79.08-.74.03-.58-.02-.67c-.02-.85.18-1.05-.19-1.31-.14-.66-.97-1.21-1.7-1.53-.19-.13-.44-.51-.57-.75l.03-.62s.16-.18.17-.14l.04.25.19.71c.84.66,1.38.44,2.08,1.6.14.23.18.5.25.74.1.33.22.63.21.99v1.36c0,.27-.06.48-.14.76l-.09.61-.18,1.17.16.84c.24.38.45.7.43,1.29h0Z"/>
    <path class="cls-14" d="M378.94,141.21c-.22-.15-.38-.16-.5-.5l.58.27c.2.09.62.19.88.2l1.23.07h2.28l.89-.12c.21-.02.57-.14.78-.21l.89-.33.88-.38c.68-.3,1.12-.86,1.64-1.37l.4-.39.42-.37.89-.8.66-.53c.29-.24.65-.46,1.07-.17-.28.18-.59.3-.94.41l-.54.53c-.38.38-.75.68-1.16,1l-.39.31c-.46.5-.85,1.02-1.44,1.35l-.59.33-1.17.53-1.18.41c-.42.15-.84.12-1.27.12h-2.04l-1.23-.06c-.39-.02-.69-.11-1.01-.32l-.03.02Z"/>
    <path class="cls-14" d="M349.35,153.62l-.67-.69c-.08-.39-.18-.81-.34-1.16l.06-1.62c.18-.19.25-.4.35-.62l.58-1.23.27-.6.36-.9.37-1.37.16-.58.21-.57.3-.74c.11-.28.21-.49.49-.66l-.33.8-.26.61-.6,2.66-.42,1.28-.3.63-.25.62c-.05.14-.23.37-.32.49l-.22.97c-.09.39.05,1.01.21,1.39l.31.71.95.73c-.32.14-.71.04-.9-.15h0Z"/>
    <path class="cls-14" d="M381.82,93.7l-.7-.12c-.26-.05-.68-.2-.91-.3l-.84-.95-.22-.4c-.25-.25-.47-.5-.66-.78l-.49-.72-.31-.38-.62-.66-.58-.76-1.02-1.78-.57-.74-.57-1.12c-.15-.3-.48-.38-.86-.45.02-.15.33-.24.46-.18.62.31.8.86.99,1.18l.71,1.18.38.4.49.89c.21.38.48.79.79,1.12l.68.73.26.39.7.96.78.96c.23.29.4.54.7.76,1.02.72,2.04.07,2.9.7-.5.12-1.02.16-1.48.08h-.01Z"/>
    <path class="cls-14" d="M392.15,93.83h-.75l-2.22-.29-1.24-.04-.83-.03-.55.02-1.09.07h-.67c-.17,0-.58.19-.64-.15.06-.15.43-.1.59-.12l.77-.07,1.04-.02.5-.04c.7-.06,1.35.04,2.06.08l2.28.15.97.14,1.29.06.94.23.22.08c.06.02.06.22,0,.25s-.2.05-.27.02c-.29-.12-.7-.14-1.02-.18l-1.35-.17h-.03Z"/>
    <path class="cls-14" d="M376.58,109.47l.95,1.37c-.35-.08-.62-.27-.92-.49-.47-.46-.55-.96-.94-1.36-.07-.12-.2-.4-.24-.54l-.19-.66-.27-1.04c-.07-.29-.13-.68-.14-.98l.2-1.01c.17-.87.26-1.8.78-2.6.08.75-.26,1.38-.44,2.05l-.2.81c.12.67.21,1.21.2,1.85,0,.27.14.5.23.75.07.22.12.46.22.64l.26.49c.13.25.32.46.5.72h0Z"/>
    <path class="cls-14" d="M394.69,93.57c0-.28.14-.46.31-.56l.86-.5.67-.37,1.57-.88.47-.48c.22-.45.51-.73.97-.98.19-.1.32-.54.43-.71.15-.11.28-.22.36-.37l.28-.51c.17-.2.25-.32.34-.56l.3-.82c.05-.24-.04-.45.28-.68.15.47.03,1.45-.16,1.68s-.28.37-.35.66l-.38.39c-.16.16-.22.26-.34.48-.22.39-1.05,1.21-1.56,1.59-.17.24-.37.5-.64.65l-1.19.65c-.51.28-1,.55-1.55.75-.2.2-.39.39-.69.59l.02-.02Z"/>
    <path class="cls-14" d="M397.72,108.55l.42-.66c.29-.46.19-1.15.29-1.69l.23-1.25c.05-.25.03-.63,0-.89l-.04-.55-.11-.88-.07-.53-.1-.56-.14-.46c-.03-.1-.06-.25-.02-.32s.31.02.33.1l.13.56.26,1.17.08,1.3c.04.61.07,1.19-.02,1.79l-.08.57-.23,1.04-.2.77c-.08.3-.38.48-.75.47l.02.02Z"/>
    <path class="cls-14" d="M352.5,143l-.04.21c-.06.29-.38-.37-.29-1.14l.06-.55.18-.59.29-1.12.44-.41c.35.4.17.73.05,1.14l-.3,1.08-.4,1.37h.01Z"/>
    <path class="cls-14" d="M392.74,109.1l-.04.62c-.02.26-.08.71.26.85.21.08.59-.63.41-1.02l-.26-.58c-.05-.12-.19-.4-.31-.46l-.87-.43c-.08-.04-.14-.08-.18-.12-.14-.14.35-.21.96.06l.67.79c.25.29.43.89.38,1.41-.03.42-.5.75-.91.76-.23,0-.47-.28-.55-.45-.11-.24.02-.51.18-.74-.07-.1-.16-.33-.1-.42.08-.1.27-.23.34-.26h.02Z"/>
    <path class="cls-14" d="M398.28,95.17c-.02.3-.07.51-.24.67-.29-.21-.28-.37-.26-.64.02-.37.08-.68.26-1l.19-.69.54-.65,1.36-1.72.48-.61c.02.38-.14.58-.31.84l-.23.35-.78.95c-.29.35-.55.68-.74,1.1l-.21.46-.07.93h0Z"/>
    <path class="cls-14" d="M374.02,116.07c-.1.28-.15.43-.36.65-.27-.44.02-1.15.3-1.66.11-.2.2-.38.37-.53.18-.52.57-.85,1.04-1.12l.61-.35c.18-.1.39-.11.57-.02l-.88.7-1.01.97-.33.53-.3.83h-.01Z"/>
    <path class="cls-14" d="M405.84,125.15c-.19.05-.56.25-.73.19l-.64-.23c-.36.17-.68.07-.95-.15-.51-.02-.97-.21-1.36-.52l-.42-.13c-.12-.04-.15-.37-.1-.47.55.49,1.23.32,1.88.82.37-.19.74-.03,1.12.13.37,0,.79-.06,1.16.09.05,0,.17-.06.18-.02l.09.21c.02.06-.14.07-.23.09h0Z"/>
    <path class="cls-14" d="M381,115.29c.15.36.53.48.42.59-.04.04-.22.07-.26.03l-.48-.39-.35-.89c-.11-.29-.21-.56-.44-.77l-1.18-1.06c-.2-.18-.44-.31-.4-.69l.58.36.53.51c.48.46,1.02.93,1.28,1.56l.31.75h0Z"/>
    <path class="cls-14" d="M383.23,108.15c-.26.13-.71-.12-.88-.32-.06-.07,0-.3.03-.4.09-.4.39-.64.78-.56.32.07.52.48.4.85-.06.19-.17.35-.33.43Z"/>
    <path class="cls-14" d="M370.15,136.74c.07.02.18.17.2.23.02.08-.19.25-.28.22l-.82-.22c-.89-.24-1.33-1.37-1.07-2.28l.45,1.46.78.38.73.19v.02Z"/>
    <path class="cls-14" d="M390.14,110.79s-.27.07-.31,0l-.18-.29c-.13-.21-.13-.33-.1-.58.04-.3-.01-.79.27-1.02l.68-.54c.43-.35.85-.53,1.15-.15-1.04-.1-2.08,1.33-1.88,1.76l.37.82h0Z"/>
    <path class="cls-14" d="M396.65,107.12c-.06.2-.26.36-.46.38-.15,0-.35-.18-.45-.38-.12-.23.08-.62.31-.77.12-.08.44.05.52.16.12.16.15.38.08.61h0Z"/>
    <path class="cls-14" d="M395.08,122.41l-.07.22s-.13.02-.15,0l-.1-.27c.66-.21.65-.96,1.46-.75.13.27-.04.65-.35.81-.2.11-.57.17-.79,0h0Z"/>
    <path class="cls-14" d="M387.58,119.41c-.02.15-.33.39-.44.32-.36-.23-.53-1.23-.09-1.25l.6.32-.07.61h0Z"/>
    <path class="cls-14" d="M390.95,106.98c-.51-.07-1.09-.04-1.46.37-.06.06-.25.11-.35.08.49-1,2.21-1.09,2.8-.31l-.99-.14Z"/>
    <path class="cls-14" d="M391.98,103.35c-.53.41-.42-1.15-.12-1.63l.38-.59s.1-.15.15-.14l.18.07c.2.07-1.01,1.13-.6,2.28h.01Z"/>
    <path class="cls-14" d="M394.24,121.31l-.38.07c-.1.02-.19-.33-.13-.41.22-.26.62-.43.93-.36.23.05.37.44.22.55-.12.1-.45.12-.64.15h0Z"/>
    <path class="cls-14" d="M390.27,110.75l.46-.12c.11-.03.17-.21.25-.38.17-.37-.28-.68.07-.91.46-.03.38.92.11,1.4-.16.28-.95.37-.89,0h0Z"/>
    <path class="cls-14" d="M395.63,154.45c-.39.03-.77-.04-.84-.31-.02-.06.16-.09.22-.05.16.13.43.02.63,0,.28-.02.55-.07.65-.35.03-.1.28-.27.33-.19.06.09.12.31.08.39-.13.22-.6.17-1.06.5h0Z"/>
    <path class="cls-14" d="M389.04,102.63c.09.21-.07.57-.31.73l-.11-.61c-.08-.45-.13-.79-.35-1.23.04-.06.29.02.33.11l.44,1Z"/>
    <path class="cls-14" d="M350.94,153.85l.57.1c-.09.26-.32.32-.55.32-.18,0-.43-.12-.53-.29-.22-.37-.29-.79-.02-1.08l.07.71c.01.12.34.23.47.25h-.01Z"/>
    <path class="cls-14" d="M396.05,115.98c-.28,0-.37-.33-.43-.52l-.08-.27c-.02-.07.16-.2.24-.2.19,0,.45.19.51.38.05.18-.06.6-.24.6h0Z"/>
    <path class="cls-14" d="M398.03,153.63c-.3.33-.71.47-1.11.2.47-.03.74-.23.94-.72.15.07.26.41.17.52h0Z"/>
  </g>
</svg>